# xmcd CD database file
#
# Track frame offsets:
#	150
#	15600
#	33397
#
# Disc length: 649 seconds
#
# Revision: 0
# Processed by: cddbd v1.5.1PL0 Copyright (c) Steve Scherf et al.
# Submitted via: CDex 1.51
#
DISCID=19028703
DTITLE=柳原愛子 - きっと ふたり 会えてよかった
DYEAR=1993
DGENRE=JPop
TTITLE0=きっと ふたり 会えてよかった
TTITLE1=悲しみの向こう側に
TTITLE2=きっと ふたり 会えてよかった（オリジナルカラオケ）
EXTD=YEAR: 1993
EXTT0=
EXTT1=
EXTT2=
PLAYORDER=
